<?xml version="1.0" encoding="UTF-8"?>
<svg width="200" height="200" viewBox="0 0 200 200" xmlns="http://www.w3.org/2000/svg">
  <defs>
    <linearGradient id="pinkGradient" x1="0%" y1="0%" x2="100%" y2="100%">
      <stop offset="0%" style="stop-color:#ff9a9e;stop-opacity:1" />
      <stop offset="100%" style="stop-color:#fad0c4;stop-opacity:1" />
    </linearGradient>
    <linearGradient id="stemGradient" x1="0%" y1="0%" x2="100%" y2="100%">
      <stop offset="0%" style="stop-color:#4CAF50;stop-opacity:1" />
      <stop offset="100%" style="stop-color:#81C784;stop-opacity:1" />
    </linearGradient>
  </defs>
  <g transform="translate(100,100)">
    <!-- Стебелек -->
    <path d="M-40,0 C-60,10 -70,20 -80,30 C-90,40 -95,50 -100,60" 
          stroke="url(#stemGradient)" 
          stroke-width="4" 
          fill="none"/>
    <!-- Листики -->
    <path d="M-70,20 C-65,25 -60,30 -65,35 C-70,40 -75,35 -80,30" 
          fill="url(#stemGradient)"/>
    <path d="M-85,40 C-80,45 -75,50 -80,55 C-85,60 -90,55 -95,50" 
          fill="url(#stemGradient)"/>
    <!-- Цветок -->
    <circle cx="0" cy="0" r="15" fill="#ffd700"/>
    <path d="M0,-40 C10,-30 20,-30 30,-40 C30,-30 40,-20 40,0 C40,20 30,30 30,40 C20,30 10,30 0,40 C-10,30 -20,30 -30,40 C-30,30 -40,20 -40,0 C-40,-20 -30,-30 -30,-40 C-20,-30 -10,-30 0,-40" 
          fill="url(#pinkGradient)" 
          transform="rotate(0)"/>
    <path d="M0,-40 C10,-30 20,-30 30,-40 C30,-30 40,-20 40,0 C40,20 30,30 30,40 C20,30 10,30 0,40 C-10,30 -20,30 -30,40 C-30,30 -40,20 -40,0 C-40,-20 -30,-30 -30,-40 C-20,-30 -10,-30 0,-40" 
          fill="url(#pinkGradient)" 
          transform="rotate(45)"/>
    <path d="M0,-40 C10,-30 20,-30 30,-40 C30,-30 40,-20 40,0 C40,20 30,30 30,40 C20,30 10,30 0,40 C-10,30 -20,30 -30,40 C-30,30 -40,20 -40,0 C-40,-20 -30,-30 -30,-40 C-20,-30 -10,-30 0,-40" 
          fill="url(#pinkGradient)" 
          transform="rotate(90)"/>
    <path d="M0,-40 C10,-30 20,-30 30,-40 C30,-30 40,-20 40,0 C40,20 30,30 30,40 C20,30 10,30 0,40 C-10,30 -20,30 -30,40 C-30,30 -40,20 -40,0 C-40,-20 -30,-30 -30,-40 C-20,-30 -10,-30 0,-40" 
          fill="url(#pinkGradient)" 
          transform="rotate(135)"/>
  </g>
</svg> 