<?xml version="1.0" encoding="UTF-8"?>
<svg width="200" height="200" viewBox="0 0 200 200" xmlns="http://www.w3.org/2000/svg">
  <defs>
    <linearGradient id="goldGradient" x1="0%" y1="0%" x2="100%" y2="100%">
      <stop offset="0%" style="stop-color:#ffd700;stop-opacity:1" />
      <stop offset="100%" style="stop-color:#ffa500;stop-opacity:1" />
    </linearGradient>
    <linearGradient id="stemGradient" x1="0%" y1="0%" x2="100%" y2="100%">
      <stop offset="0%" style="stop-color:#388E3C;stop-opacity:1" />
      <stop offset="100%" style="stop-color:#66BB6A;stop-opacity:1" />
    </linearGradient>
  </defs>
  <g transform="translate(100,100)">
    <!-- Стебелек -->
    <path d="M-50,0 C-70,15 -80,25 -90,35 C-100,45 -105,55 -110,65" 
          stroke="url(#stemGradient)" 
          stroke-width="5" 
          fill="none"/>
    <!-- Листики -->
    <path d="M-75,25 C-70,30 -65,35 -70,40 C-75,45 -80,40 -85,35" 
          fill="url(#stemGradient)"/>
    <path d="M-95,45 C-90,50 -85,55 -90,60 C-95,65 -100,60 -105,55" 
          fill="url(#stemGradient)"/>
    <!-- Цветок -->
    <circle cx="0" cy="0" r="20" fill="url(#goldGradient)"/>
    <path d="M0,-50 C15,-35 30,-35 45,-50 C45,-35 60,-25 60,0 C60,25 45,35 45,50 C30,35 15,35 0,50 C-15,35 -30,35 -45,50 C-45,35 -60,25 -60,0 C-60,-25 -45,-35 -45,-50 C-30,-35 -15,-35 0,-50" 
          fill="url(#goldGradient)" 
          transform="rotate(0)"/>
    <path d="M0,-50 C15,-35 30,-35 45,-50 C45,-35 60,-25 60,0 C60,25 45,35 45,50 C30,35 15,35 0,50 C-15,35 -30,35 -45,50 C-45,35 -60,25 -60,0 C-60,-25 -45,-35 -45,-50 C-30,-35 -15,-35 0,-50" 
          fill="url(#goldGradient)" 
          transform="rotate(45)"/>
    <path d="M0,-50 C15,-35 30,-35 45,-50 C45,-35 60,-25 60,0 C60,25 45,35 45,50 C30,35 15,35 0,50 C-15,35 -30,35 -45,50 C-45,35 -60,25 -60,0 C-60,-25 -45,-35 -45,-50 C-30,-35 -15,-35 0,-50" 
          fill="url(#goldGradient)" 
          transform="rotate(90)"/>
    <path d="M0,-50 C15,-35 30,-35 45,-50 C45,-35 60,-25 60,0 C60,25 45,35 45,50 C30,35 15,35 0,50 C-15,35 -30,35 -45,50 C-45,35 -60,25 -60,0 C-60,-25 -45,-35 -45,-50 C-30,-35 -15,-35 0,-50" 
          fill="url(#goldGradient)" 
          transform="rotate(135)"/>
  </g>
</svg> 